<svg id="visual" viewBox="0 0 1920 1080" width="1920" height="1080" xmlns="http://www.w3.org/2000/svg" xmlns:xlink="http://www.w3.org/1999/xlink" version="1.1"><rect x="0" y="0" width="1920" height="1080" fill="#0062ad"></rect><defs><linearGradient id="grad1_0" x1="43.8%" y1="100%" x2="100%" y2="0%"><stop offset="14.444444444444446%" stop-color="#0062ad" stop-opacity="1"></stop><stop offset="85.55555555555554%" stop-color="#0062ad" stop-opacity="1"></stop></linearGradient></defs><defs><linearGradient id="grad2_0" x1="0%" y1="100%" x2="56.3%" y2="0%"><stop offset="14.444444444444446%" stop-color="#0062ad" stop-opacity="1"></stop><stop offset="85.55555555555554%" stop-color="#0062ad" stop-opacity="1"></stop></linearGradient></defs><g transform="translate(1920, 1080)"><path d="M-648 0C-594.9 -91.8 -541.9 -183.7 -494.5 -285.5C-447.1 -387.3 -405.5 -499.1 -324 -561.2C-242.5 -623.3 -121.3 -635.6 0 -648L0 0Z" fill="#001122"></path></g><g transform="translate(0, 0)"><path d="M648 0C602.3 96.1 556.6 192.2 508.4 293.5C460.1 394.8 409.2 501.2 324 561.2C238.8 621.1 119.4 634.6 0 648L0 0Z" fill="#001122"></path></g></svg>