<svg id="visual" viewBox="0 0 960 540" width="960" height="540" xmlns="http://www.w3.org/2000/svg" xmlns:xlink="http://www.w3.org/1999/xlink" version="1.1"><rect width="960" height="540" fill="#001829"></rect><g><g transform="translate(581 349)"><path d="M0 -39.4L34.1 -19.7L34.1 19.7L0 39.4L-34.1 19.7L-34.1 -19.7Z" fill="#297EA6"></path></g><g transform="translate(290 434)"><path d="M0 -15L13 -7.5L13 7.5L0 15L-13 7.5L-13 -7.5Z" fill="#297EA6"></path></g><g transform="translate(902 130)"><path d="M0 -16L13.9 -8L13.9 8L0 16L-13.9 8L-13.9 -8Z" fill="#297EA6"></path></g><g transform="translate(401 209)"><path d="M0 -27L23.4 -13.5L23.4 13.5L0 27L-23.4 13.5L-23.4 -13.5Z" fill="#297EA6"></path></g><g transform="translate(463 60)"><path d="M0 -38L32.9 -19L32.9 19L0 38L-32.9 19L-32.9 -19Z" fill="#297EA6"></path></g><g transform="translate(617 196)"><path d="M0 -14L12.1 -7L12.1 7L0 14L-12.1 7L-12.1 -7Z" fill="#297EA6"></path></g><g transform="translate(196 67)"><path d="M0 -26L22.5 -13L22.5 13L0 26L-22.5 13L-22.5 -13Z" fill="#297EA6"></path></g><g transform="translate(172 263)"><path d="M0 -30L26 -15L26 15L0 30L-26 15L-26 -15Z" fill="#297EA6"></path></g><g transform="translate(61 481)"><path d="M0 -29L25.1 -14.5L25.1 14.5L0 29L-25.1 14.5L-25.1 -14.5Z" fill="#297EA6"></path></g><g transform="translate(776 121)"><path d="M0 -28L24.2 -14L24.2 14L0 28L-24.2 14L-24.2 -14Z" fill="#297EA6"></path></g><g transform="translate(758 450)"><path d="M0 -26L22.5 -13L22.5 13L0 26L-22.5 13L-22.5 -13Z" fill="#297EA6"></path></g><g transform="translate(388 315)"><path d="M0 -27L23.4 -13.5L23.4 13.5L0 27L-23.4 13.5L-23.4 -13.5Z" fill="#297EA6"></path></g><g transform="translate(594 97)"><path d="M0 -37L32 -18.5L32 18.5L0 37L-32 18.5L-32 -18.5Z" fill="#297EA6"></path></g><g transform="translate(852 205)"><path d="M0 -33L28.6 -16.5L28.6 16.5L0 33L-28.6 16.5L-28.6 -16.5Z" fill="#297EA6"></path></g><g transform="translate(699 280)"><path d="M0 -18L15.6 -9L15.6 9L0 18L-15.6 9L-15.6 -9Z" fill="#297EA6"></path></g><g transform="translate(501 173)"><path d="M0 -34L29.4 -17L29.4 17L0 34L-29.4 17L-29.4 -17Z" fill="#297EA6"></path></g><g transform="translate(189 173)"><path d="M0 -31L26.8 -15.5L26.8 15.5L0 31L-26.8 15.5L-26.8 -15.5Z" fill="#297EA6"></path></g><g transform="translate(720 60)"><path d="M0 -29L25.1 -14.5L25.1 14.5L0 29L-25.1 14.5L-25.1 -14.5Z" fill="#297EA6"></path></g><g transform="translate(660 487)"><path d="M0 -27L23.4 -13.5L23.4 13.5L0 27L-23.4 13.5L-23.4 -13.5Z" fill="#297EA6"></path></g><g transform="translate(369 464)"><path d="M0 -23L19.9 -11.5L19.9 11.5L0 23L-19.9 11.5L-19.9 -11.5Z" fill="#297EA6"></path></g><g transform="translate(516 293)"><path d="M0 -22L19.1 -11L19.1 11L0 22L-19.1 11L-19.1 -11Z" fill="#297EA6"></path></g><g transform="translate(702 159)"><path d="M0 -34L29.4 -17L29.4 17L0 34L-29.4 17L-29.4 -17Z" fill="#297EA6"></path></g><g transform="translate(86 147)"><path d="M0 -21L18.2 -10.5L18.2 10.5L0 21L-18.2 10.5L-18.2 -10.5Z" fill="#297EA6"></path></g><g transform="translate(867 46)"><path d="M0 -15L13 -7.5L13 7.5L0 15L-13 7.5L-13 -7.5Z" fill="#297EA6"></path></g><g transform="translate(72 309)"><path d="M0 -26L22.5 -13L22.5 13L0 26L-22.5 13L-22.5 -13Z" fill="#297EA6"></path></g><g transform="translate(266 329)"><path d="M0 -26L22.5 -13L22.5 13L0 26L-22.5 13L-22.5 -13Z" fill="#297EA6"></path></g><g transform="translate(812 348)"><path d="M0 -32L27.7 -16L27.7 16L0 32L-27.7 16L-27.7 -16Z" fill="#297EA6"></path></g><g transform="translate(280 164)"><path d="M0 -20L17.3 -10L17.3 10L0 20L-17.3 10L-17.3 -10Z" fill="#297EA6"></path></g><g transform="translate(688 365)"><path d="M0 -34L29.4 -17L29.4 17L0 34L-29.4 17L-29.4 -17Z" fill="#297EA6"></path></g></g></svg>