<svg id="visual" viewBox="0 0 960 540" width="960" height="540" xmlns="http://www.w3.org/2000/svg" xmlns:xlink="http://www.w3.org/1999/xlink" version="1.1"><path d="M0 152L40 173.7C80 195.3 160 238.7 240 227.8C320 217 400 152 480 125.8C560 99.7 640 112.3 720 139.3C800 166.3 880 207.7 920 228.3L960 249L960 0L920 0C880 0 800 0 720 0C640 0 560 0 480 0C400 0 320 0 240 0C160 0 80 0 40 0L0 0Z" fill="#004cbb"></path><path d="M0 206L40 250.2C80 294.3 160 382.7 240 423.2C320 463.7 400 456.3 480 417.7C560 379 640 309 720 303.7C800 298.3 880 357.7 920 387.3L960 417L960 247L920 226.3C880 205.7 800 164.3 720 137.3C640 110.3 560 97.7 480 123.8C400 150 320 215 240 225.8C160 236.7 80 193.3 40 171.7L0 150Z" fill="#005de8"></path><path d="M0 357L40 385.8C80 414.7 160 472.3 240 489.5C320 506.7 400 483.3 480 453.7C560 424 640 388 720 397.8C800 407.7 880 463.3 920 491.2L960 519L960 415L920 385.3C880 355.7 800 296.3 720 301.7C640 307 560 377 480 415.7C400 454.3 320 461.7 240 421.2C160 380.7 80 292.3 40 248.2L0 204Z" fill="#2d77ff"></path><path d="M0 541L40 541C80 541 160 541 240 541C320 541 400 541 480 541C560 541 640 541 720 541C800 541 880 541 920 541L960 541L960 517L920 489.2C880 461.3 800 405.7 720 395.8C640 386 560 422 480 451.7C400 481.3 320 504.7 240 487.5C160 470.3 80 412.7 40 383.8L0 355Z" fill="#6198ff"></path></svg>